<svg width="21" height="18" viewBox="0 0 21 18" fill="none" xmlns="http://www.w3.org/2000/svg">
<path fill-rule="evenodd" clip-rule="evenodd" d="M7.67285 5.3916L6.33351 3.66959C7.58349 2.86101 9.07335 2.3916 10.6729 2.3916C15.0911 2.3916 18.6729 5.97332 18.6729 10.3916C18.6729 12.5144 17.8461 14.4441 16.4969 15.8762L17.4639 17.0348C19.1398 15.3218 20.1729 12.9774 20.1729 10.3916C20.1729 5.1449 15.9196 0.891602 10.6729 0.891602C8.72617 0.891602 6.91623 1.47712 5.40957 2.48167L4.17285 0.891602L2.67285 5.3916H7.67285ZM2.57324 10.1592V16.8916H4.34277V8.43652H2.5791L0.393555 9.94238V11.5889L2.46777 10.1592H2.57324ZM7.64746 16.376C8.22949 16.8643 8.97559 17.1084 9.88574 17.1084C10.8545 17.1084 11.6357 16.8311 12.2295 16.2764C12.8232 15.7178 13.1201 14.9893 13.1201 14.0908C13.1201 13.2627 12.8623 12.583 12.3467 12.0518C11.835 11.5205 11.1787 11.2549 10.3779 11.2549C9.56543 11.2549 8.96777 11.5303 8.58496 12.0811H8.47949L8.66699 9.90723H12.6104V8.43652H7.2959L6.87402 13.3408H8.45605C8.76855 12.833 9.25098 12.5791 9.90332 12.5791C10.3525 12.5791 10.7197 12.7217 11.0049 13.0068C11.29 13.292 11.4326 13.667 11.4326 14.1318C11.4326 14.5889 11.29 14.958 11.0049 15.2393C10.7236 15.5205 10.3545 15.6611 9.89746 15.6611C9.49512 15.6611 9.15332 15.5537 8.87207 15.3389C8.59082 15.124 8.4248 14.8408 8.37402 14.4893H6.73926C6.7666 15.2549 7.06934 15.8838 7.64746 16.376Z" fill="white" fill-opacity="0.7"/>
</svg>
