<svg width="22" height="18" viewBox="0 0 22 18" fill="none" xmlns="http://www.w3.org/2000/svg">
<path fill-rule="evenodd" clip-rule="evenodd" d="M12.6729 5.3916L14.0122 3.66959C12.7622 2.86101 11.2724 2.3916 9.67285 2.3916C5.25457 2.3916 1.67285 5.97332 1.67285 10.3916C1.67285 12.5144 2.49964 14.4441 3.84877 15.8762L2.88182 17.0348C1.20591 15.3218 0.172852 12.9774 0.172852 10.3916C0.172852 5.1449 4.42615 0.891602 9.67285 0.891602C11.6195 0.891602 13.4295 1.47712 14.9361 2.48167L16.1729 0.891602L17.6729 5.3916H12.6729ZM9.09082 11.9053V13.2236H10.1396C10.6123 13.2236 10.9854 13.3311 11.2588 13.5459C11.5322 13.7568 11.6689 14.0479 11.6689 14.4189C11.6689 14.7783 11.5283 15.0713 11.2471 15.2979C10.9697 15.5244 10.6104 15.6377 10.1689 15.6377C9.71582 15.6377 9.34863 15.5342 9.06738 15.3271C8.78613 15.1162 8.63184 14.8311 8.60449 14.4717H6.91113C6.9502 15.2686 7.26465 15.9072 7.85449 16.3877C8.44434 16.8682 9.20996 17.1084 10.1514 17.1084C10.7842 17.1084 11.3545 16.999 11.8623 16.7803C12.3701 16.5615 12.7646 16.2588 13.0459 15.8721C13.3311 15.4814 13.4736 15.042 13.4736 14.5537C13.4736 13.999 13.3037 13.542 12.9639 13.1826C12.6279 12.8193 12.1689 12.6045 11.5869 12.5381V12.4326C12.0596 12.335 12.4365 12.1104 12.7178 11.7588C13.0029 11.4072 13.1455 10.9873 13.1455 10.499C13.1455 9.83496 12.8643 9.29004 12.3018 8.86426C11.7432 8.43457 11.0303 8.21973 10.1631 8.21973C9.24121 8.21973 8.50293 8.4541 7.94824 8.92285C7.39355 9.3916 7.10059 10.0264 7.06934 10.8271H8.7041C8.72754 10.46 8.86621 10.1689 9.12012 9.9541C9.37402 9.73926 9.70605 9.63184 10.1162 9.63184C10.5303 9.63184 10.8584 9.7334 11.1006 9.93652C11.3467 10.1357 11.4697 10.4053 11.4697 10.7451C11.4697 11.0889 11.3447 11.3682 11.0947 11.583C10.8486 11.7979 10.5244 11.9053 10.1221 11.9053H9.09082ZM18.249 17.1084C19.2959 17.1084 20.1162 16.7158 20.71 15.9307C21.3076 15.1416 21.6064 14.0498 21.6064 12.6553C21.6064 11.2607 21.3076 10.1729 20.71 9.3916C20.1123 8.61035 19.292 8.21973 18.249 8.21973C17.2021 8.21973 16.3799 8.61035 15.7822 9.3916C15.1885 10.1689 14.8916 11.2549 14.8916 12.6494C14.8916 14.0479 15.1885 15.1416 15.7822 15.9307C16.3799 16.7158 17.2021 17.1084 18.249 17.1084ZM18.249 15.667C17.7568 15.667 17.3721 15.4072 17.0947 14.8877C16.8213 14.3682 16.6846 13.6221 16.6846 12.6494C16.6846 11.6846 16.8232 10.9463 17.1006 10.4346C17.3779 9.92285 17.7607 9.66699 18.249 9.66699C18.7412 9.66699 19.124 9.92285 19.3975 10.4346C19.6748 10.9424 19.8135 11.6807 19.8135 12.6494C19.8135 13.626 19.6748 14.374 19.3975 14.8936C19.124 15.4092 18.7412 15.667 18.249 15.667Z" fill="white" fill-opacity="0.7"/>
</svg>
