<svg width="18" height="4" viewBox="0 0 18 4" fill="none" xmlns="http://www.w3.org/2000/svg">
<path fill-rule="evenodd" clip-rule="evenodd" d="M4 2C4 2.9665 3.2165 3.75 2.25 3.75C1.2835 3.75 0.5 2.9665 0.5 2C0.5 1.0335 1.2835 0.25 2.25 0.25C3.2165 0.25 4 1.0335 4 2ZM10.6 2C10.6 2.9665 9.8165 3.75 8.85001 3.75C7.88351 3.75 7.10001 2.9665 7.10001 2C7.10001 1.0335 7.88351 0.25 8.85001 0.25C9.8165 0.25 10.6 1.0335 10.6 2ZM15.45 3.75C16.4165 3.75 17.2 2.9665 17.2 2C17.2 1.0335 16.4165 0.25 15.45 0.25C14.4835 0.25 13.7 1.0335 13.7 2C13.7 2.9665 14.4835 3.75 15.45 3.75Z" fill="white" fill-opacity="0.5"/>
</svg>
