<svg width="16" height="16" viewBox="0 0 16 16" fill="none" xmlns="http://www.w3.org/2000/svg">
<mask id="path-1-inside-1" fill="white">
<path fill-rule="evenodd" clip-rule="evenodd" d="M8 0C3.58172 0 0 3.58172 0 8C0 12.4183 3.58172 16 8 16C12.4183 16 16 12.4183 16 8C16 3.58172 12.4183 0 8 0ZM3.81667 7.73333L6.26667 10.1833L12.45 4L13.2667 4.81667L6.26667 11.8167L3 8.55L3.81667 7.73333Z"/>
</mask>
<path fill-rule="evenodd" clip-rule="evenodd" d="M8 0C3.58172 0 0 3.58172 0 8C0 12.4183 3.58172 16 8 16C12.4183 16 16 12.4183 16 8C16 3.58172 12.4183 0 8 0ZM3.81667 7.73333L6.26667 10.1833L12.45 4L13.2667 4.81667L6.26667 11.8167L3 8.55L3.81667 7.73333Z" fill="white"/>
<path d="M6.26667 10.1833L5.55956 10.8904L6.26667 11.5975L6.97377 10.8904L6.26667 10.1833ZM3.81667 7.73333L4.52377 7.02623L3.81667 6.31912L3.10956 7.02623L3.81667 7.73333ZM12.45 4L13.1571 3.29289L12.45 2.58579L11.7429 3.29289L12.45 4ZM13.2667 4.81667L13.9738 5.52377L14.6809 4.81667L13.9738 4.10956L13.2667 4.81667ZM6.26667 11.8167L5.55956 12.5238L6.26667 13.2309L6.97377 12.5238L6.26667 11.8167ZM3 8.55L2.29289 7.84289L1.58579 8.55L2.29289 9.25711L3 8.55ZM1 8C1 4.13401 4.13401 1 8 1V-1C3.02944 -1 -1 3.02944 -1 8H1ZM8 15C4.13401 15 1 11.866 1 8H-1C-1 12.9706 3.02944 17 8 17V15ZM15 8C15 11.866 11.866 15 8 15V17C12.9706 17 17 12.9706 17 8H15ZM8 1C11.866 1 15 4.13401 15 8H17C17 3.02944 12.9706 -1 8 -1V1ZM6.97377 9.47623L4.52377 7.02623L3.10956 8.44044L5.55956 10.8904L6.97377 9.47623ZM11.7429 3.29289L5.55956 9.47623L6.97377 10.8904L13.1571 4.70711L11.7429 3.29289ZM13.9738 4.10956L13.1571 3.29289L11.7429 4.70711L12.5596 5.52377L13.9738 4.10956ZM6.97377 12.5238L13.9738 5.52377L12.5596 4.10956L5.55956 11.1096L6.97377 12.5238ZM2.29289 9.25711L5.55956 12.5238L6.97377 11.1096L3.70711 7.84289L2.29289 9.25711ZM3.10956 7.02623L2.29289 7.84289L3.70711 9.25711L4.52377 8.44044L3.10956 7.02623Z" fill="white" mask="url(#path-1-inside-1)"/>
</svg>
