<svg width="139" height="138" viewBox="0 0 139 138" fill="none" xmlns="http://www.w3.org/2000/svg">
<path fill-rule="evenodd" clip-rule="evenodd" d="M62.5 20.3208V0.175293C27.68 3.68345 0.5 33.0799 0.5 68.8246C0.5 106.932 31.3924 137.825 69.5 137.825C107.608 137.825 138.5 106.932 138.5 68.8246C138.5 60.8629 137.152 53.2161 134.671 46.1002L117.629 59.5805C118.201 62.5742 118.5 65.6644 118.5 68.8246C118.5 95.8866 96.562 117.825 69.5 117.825C42.438 117.825 20.5 95.8866 20.5 68.8246C20.5 44.1393 38.7539 23.7174 62.5 20.3208Z" fill="#FBCB06"/>
<path fill-rule="evenodd" clip-rule="evenodd" d="M82 49.7784V0.824707C91.1667 2.32471 111.7 8.92471 120.5 23.3247L109.5 40.3247C106.667 36.9914 99.4 29.6247 93 26.8247V69.2958C93.0038 69.4716 93.0058 69.6479 93.0058 69.8247C93.0058 82.943 82.3712 93.5775 69.2529 93.5775C56.1345 93.5775 45.5 82.943 45.5 69.8247C45.5 56.7063 56.1345 46.0718 69.2529 46.0718C73.9437 46.0718 78.317 47.4315 82 49.7784Z" fill="#FD3F1E"/>
</svg>
